<?xml version="1.0" encoding="utf-8"?>
<!-- Generator: Adobe Illustrator 27.3.1, SVG Export Plug-In . SVG Version: 6.00 Build 0)  -->
<svg version="1.1" id="Layer_1" xmlns="http://www.w3.org/2000/svg" xmlns:xlink="http://www.w3.org/1999/xlink" x="0px" y="0px"
	 viewBox="0 0 1366 768" style="enable-background:new 0 0 1366 768;" xml:space="preserve">
<style type="text/css">
	.st0{fill:#999999;}
	.st1{fill:#E6E6E6;}
	.st2{font-family:'Merriweather';}
	.st3{font-size:174.7109px;}
	.st4{font-size:89.1757px;}
	.st5{font-size:170.1579px;}
</style>
<g>
	<path class="st0" d="M159.64,410.81c-1.71,0-3.06-0.36-4.01-1.08c-2.02-1.53-2.07-4.72-2.1-6.43c-0.12-7.41,0.15-13.49,0.38-18.85
		c0.34-7.74,0.6-13.86-0.4-20.28c-1.21-7.7-2.16-13.78-7.6-17.96c-3.53-2.71-8.41-4.13-14.14-4.13c-7.57,0-16.01,2.48-22.58,6.64
		c-5.94,3.76-8.72,7.86-10.96,11.16c-2.31,3.42-3.55,5.07-6.41,5.44c-0.35,0.04-0.71,0.07-1.08,0.07c-4.29,0-9.72-3.1-13.83-7.9
		c-4.09-4.78-6.11-10.32-5.41-14.83c0.16-1.04,0.66-4.21,9.18-11.96c8.07-7.33,14.6-10.79,19.84-13.58
		c5.82-3.09,10.41-5.53,13.85-11.47c4.53-7.85,4.65-17.86,2.45-23.31c-0.85-2.11-2.05-3.44-3.47-3.85c-0.3-0.09-0.6-0.13-0.91-0.13
		c-1.7,0-2.9,1.22-4.58,2.92c-1.1,1.12-2.48,2.51-4.39,3.99c-5.62,4.36-10.21,5.12-14.66,5.85c-4.07,0.67-7.91,1.3-11.8,4.56
		c-5.52,4.63-6.74,10.94-7.72,16.01c-0.93,4.8-1.58,7.55-4.16,8.29c-0.43,0.12-0.87,0.19-1.35,0.19c-1.37,0-2.79-0.5-4.29-1.04
		c-1.63-0.58-3.32-1.18-5.12-1.18c-1.24,0-2.41,0.29-3.48,0.88c-2.86,1.55-3.63,4.23-4.39,6.82c-0.18,0.63-0.37,1.27-0.59,1.91
		c-3.28,9.43-14.64,17.38-20.05,17.39c-0.49,0-0.91-0.07-1.19-0.22c-2.61-1.28-2.18-10.82,0.85-18.57
		c1.64-4.2,5.19-8.71,12.26-17.71c1.08-1.38,2.03-2.55,2.9-3.63c2.47-3.06,4.43-5.49,6.93-9.49c1.83-2.92,4.11-6.57,5.7-10.66
		c2.57-6.6,1.88-10.63,1.22-14.52c-0.52-3.07-1.02-5.96,0.22-10.26c1.57-5.46,4.84-9.43,7.71-12.93c3.41-4.15,6.63-8.06,4.74-12.82
		c-0.43-1.09-1.03-1.96-1.56-2.72c-0.86-1.24-1.27-1.88-1.12-2.86c0.35-2.19,3.3-3.76,5.26-4.8c0.3-0.16,0.57-0.31,0.82-0.44
		c5.4-3,7.29-6.79,13.55-19.36l1.06-2.12c7.46-14.95,11.25-22.07,13.77-26.79c2.89-5.42,4.08-7.66,7.12-14.8
		c3.37-7.91,4.89-12.2,5.9-15.04c1.19-3.36,1.69-4.75,3.71-8.08c6.81-11.2,14.95-17.63,28.75-28.04
		c26.69-20.14,40.08-30.24,48.44-34.88c14.56-8.08,32.68-18.13,59.24-23.15c11.84-2.24,22.07-4.18,32.15-4.18
		c8.15,0,15.5,1.34,22.49,4.09c17.97,7.07,34.43,23.53,40.68,30.28c0.32,0.34,0.51,0.53,0.55,0.56l1,0.83l1.07-0.73
		c2.42-1.65,4.8-3.42,7.07-5.28c7.51-6.13,12.06-11.62,14.79-14.91l0.73-0.88c4.14-4.94,12.77-15.23,23.07-20.31
		c5.95-2.93,13.46-4.55,21.14-4.55c9.71,0,18.87,2.5,25.79,7.04c6.58,4.31,9.57,9.38,12.47,14.28c3.32,5.62,6.45,10.92,14.42,13.17
		c1.29,0.36,2.27,0.51,3.38,0.51c1.66,0,3.63-0.33,7.56-0.97c3.07-0.51,7.27-1.2,13.4-2.08c14.09-2.03,24.5-3.06,30.94-3.06
		c3.45,0,5.13,0.3,6.03,0.46c3.84,0.68,12.83,2.29,21.51,8.76c8.32,6.21,12.21,13.82,14.78,18.85c2.92,5.71,3.49,8.83,3.95,11.34
		c0.46,2.51,0.82,4.49,3.25,7.18c5.89,6.52,14.81,7.4,22.68,8.18c6.23,0.62,11.61,1.15,13.18,4.38c1.46,3.02-0.13,7.38-2.45,9.7
		c-0.89,0.89-2.74,2.74-18.73,2.74c-0.51,0-1.04,0-1.58-0.01c-6.19-0.04-9.98-0.3-12.75-0.49c-1.67-0.11-2.99-0.21-4.24-0.21
		c-1.9,0-3.54,0.22-5.68,0.75c-3.46,0.86-6.05,2.02-8.14,2.94c-1.67,0.74-2.99,1.33-3.83,1.33c-0.24,0-0.41-0.05-0.59-0.16
		c-0.62-0.39-0.64-1.44-0.55-3.73c0.1-2.58,0.25-6.12-1.62-9.85c-1.62-3.23-3.64-4.4-5.99-5.75c-1.57-0.91-3.35-1.93-5.53-3.85
		c-1.9-1.66-3.94-4.3-16.3-26.76l-0.05-0.09c-2.51-4.56-4.68-8.51-9.33-9.81c-1.05-0.29-2.19-0.44-3.38-0.44
		c-2.95,0-6.9,1.03-8.36,3.92c-1.38,2.74,0.39,5.03,2.27,7.45c1.55,2.01,3.48,4.51,4.58,8.09c0.98,3.22,0.62,5.06-0.03,8.39
		c-0.51,2.62-1.22,6.21-1.43,11.79c-0.24,6.17,0.29,9.95,0.64,12.45c0.36,2.57,0.32,2.85-0.04,3.16c-0.52,0.44-1.42,0.68-2.61,0.68
		c-9.04,0-30.53-12.5-46.68-24.11c-4.35-3.13-8.5-6.34-12.52-9.46c-9.99-7.74-17.21-13.33-21.71-13.33c-0.95,0-1.79,0.24-2.49,0.72
		c-1.1,0.75-1.47,1.82-2.04,3.45c-1.54,4.4-0.39,8.14,0.63,11.45c0.27,0.87,0.52,1.7,0.71,2.49c0.71,2.98,0.35,4.78-0.85,10.75
		c-0.17,0.84-0.35,1.77-0.55,2.78c-2.69,13.66-3.72,22.27-4.47,28.56c-1.02,8.58-1.54,12.88-5.12,20.29
		c-3.48,7.19-10.72,22.15-27.02,30.33c-4.87,2.45-8.28,3.13-11.02,3.68c-3.4,0.68-6.09,1.22-8.96,4.51
		c-6.33,7.24-3.98,22.44,0.29,50.02c0.65,4.17,1,6.47,1.44,7.99c2.8,9.8,7.89,14.7,26.91,31.92c15.96,14.45,22.88,20.49,33.86,24.95
		c3.11,1.26,5.85,2.12,8.64,2.69c2.97,0.61,5.89,0.9,8.92,0.9c7.28,0,14.06-1.79,19.73-3.54c11.73-3.62,20.5-7.74,26.91-10.76
		c4.9-2.3,8.77-4.12,10.8-4.12c0.58,0,0.82,0.15,0.95,0.27c0.93,0.82,0.52,3.69-0.43,5.77c-1.74,3.81-6.01,5.23-10.54,6.74
		c-4.87,1.63-10.39,3.47-13.06,8.76c-0.81,1.61-0.99,2.8-1.17,3.96c-0.2,1.31-0.4,2.66-1.62,5.12c-0.99,2-3.06,6.17-6.37,8.41
		c-1.61,1.09-3.33,1.59-5.4,1.6c-2.03,0-4.17-0.48-6.44-0.98c-2.57-0.57-5.22-1.16-8.07-1.16c-2.75,0-5.26,0.56-7.66,1.71
		c-5.88,2.82-10.86,9.06-12.74,11.63c-0.9,0.12-1.76,0.19-2.56,0.19c-2.14,0-3.9-0.45-5.25-1.33c-2.96-1.93-3.35-5.47-3.91-10.36
		c-0.63-5.57-1.41-12.5-6.82-19.11c-1.83-2.24-3.5-3.58-5.81-5.43c-6.23-5.01-11.24-6.71-16.54-8.52c-2.74-0.93-5.58-1.9-8.85-3.38
		c-7.28-3.3-11.52-6.81-15.26-9.91c-4.78-3.96-8.91-7.39-17.21-8.39c-1.39-0.17-2.72-0.25-4.19-0.25c-1.71,0-3.53,0.1-5.84,0.24
		c-4.49,0.26-13.77,1.28-25.47,5.28c-8.17,2.79-18.34,6.26-28.34,14.57c-4.24,3.53-6.03,5.93-7.92,8.47
		c-1.73,2.32-3.51,4.72-7.46,8.46c-10.24,9.7-20.65,14.68-24.57,16.55c-17.27,8.25-32.76,9.52-41.09,10.21
		c-7.46,0.61-12.85,1.06-17.26,1.06c-4.46,0-7.55-0.46-10.35-1.54l-0.19-0.07c-0.99-0.38-2.82-1.1-4.33-1.1
		c-0.99,0-1.77,0.3-2.34,0.88c-2.73,2.84,2.95,9.84,5.52,12.71v0c0.33,0.39,0.91,0.91,1.93,1.7c1.69,1.31,3.85,2.7,6.41,4.13
		c7.68,4.27,18.5,8.56,31.38,12.42c-0.29,1.79-0.95,3.09-1.97,3.88c-0.82,0.63-1.65,0.77-2.92,0.97c-1.32,0.21-2.96,0.48-5.06,1.41
		c-2.58,1.14-4.65,2.6-6.17,4.34c-2.53,2.92-2.97,6.09-3.25,8.18c-0.07,0.49-0.15,1.12-0.25,1.51c-0.38-0.32-1.04-1.06-1.51-1.58
		c-1.65-1.85-3.91-4.38-7.37-4.8c-0.32-0.04-0.62-0.06-0.92-0.06c-2.66,0-4.44,1.41-6.51,3.05c-1.98,1.57-4.44,3.52-8.59,4.85
		C165.32,409.86,162.39,410.81,159.64,410.81z"/>
	<path d="M416.92,37.71c9.38,0,18.2,2.4,24.85,6.75c6.25,4.09,9.13,8.98,11.93,13.71c3.34,5.66,6.8,11.52,15.43,13.95
		c1.45,0.41,2.57,0.58,3.85,0.58c1.8,0,3.82-0.33,7.84-1c3.06-0.5,7.25-1.2,13.37-2.08c14.01-2.02,24.34-3.04,30.7-3.04
		c3.04,0,4.55,0.22,5.73,0.43c3.72,0.66,12.43,2.21,20.78,8.44c8,5.97,11.78,13.36,14.28,18.26c2.8,5.48,3.35,8.47,3.79,10.87
		c0.47,2.56,0.91,4.98,3.67,8.03c6.34,7.01,16.02,7.97,23.79,8.74c5.48,0.54,10.65,1.05,11.8,3.42c1.09,2.26-0.21,5.82-2.12,7.73
		c-0.55,0.55-2.23,2.24-17.51,2.24c-0.51,0-1.03,0-1.57-0.01c-6.13-0.04-9.9-0.3-12.65-0.49c-1.7-0.12-3.05-0.21-4.35-0.21
		c-2.05,0-3.81,0.23-6.09,0.8c-3.61,0.9-6.39,2.14-8.42,3.04c-0.87,0.39-1.91,0.85-2.58,1.06c-0.03-0.56,0.01-1.35,0.03-1.98
		c0.11-2.77,0.27-6.57-1.8-10.69c-1.85-3.7-4.19-5.05-6.67-6.48c-1.5-0.87-3.2-1.85-5.26-3.65c-1.71-1.49-3.74-4.13-15.93-26.3
		l-0.05-0.1c-2.59-4.7-5.03-9.14-10.38-10.64c-1.2-0.34-2.49-0.51-3.84-0.51c-3.6,0-8.09,1.28-9.9,4.87
		c-1.86,3.71,0.52,6.8,2.44,9.28c1.54,2,3.29,4.26,4.29,7.54c0.86,2.81,0.57,4.3-0.07,7.55c-0.53,2.67-1.25,6.34-1.46,12.05
		c-0.24,6.33,0.3,10.2,0.66,12.76c0.09,0.62,0.18,1.29,0.22,1.75c-0.24,0.07-0.62,0.13-1.17,0.13c-8.27,0-29.24-11.96-45.67-23.78
		c-4.32-3.11-8.46-6.32-12.47-9.42c-11.61-9-17.9-13.69-22.77-13.69c-1.31,0-2.48,0.34-3.47,1.02c-1.56,1.07-2.09,2.57-2.69,4.3
		c-1.73,4.93-0.43,9.14,0.61,12.52c0.26,0.85,0.51,1.64,0.68,2.38c0.6,2.52,0.36,3.9-0.86,10.01c-0.17,0.85-0.36,1.77-0.56,2.79
		c-2.7,13.72-3.73,22.37-4.49,28.69c-1.03,8.65-1.5,12.59-4.96,19.74c-3.4,7.02-10.47,21.62-26.24,29.54
		c-4.66,2.34-7.81,2.97-10.58,3.53c-3.43,0.69-6.66,1.33-9.92,5.06c-6.86,7.85-4.61,22.41-0.12,51.42c0.66,4.24,1.02,6.58,1.48,8.2
		c2.92,10.22,8.5,15.61,27.41,32.73c16.12,14.6,23.11,20.7,34.37,25.27c3.21,1.3,6.05,2.19,8.95,2.78c3.08,0.63,6.11,0.94,9.27,0.94
		c7.51,0,14.44-1.83,20.24-3.61c11.84-3.65,20.68-7.81,27.13-10.84c4.3-2.02,8.04-3.78,9.81-3.95c0.06,0.73-0.17,2.21-0.79,3.58
		c-1.43,3.13-5.18,4.38-9.51,5.82c-5.19,1.73-11.07,3.69-14.06,9.62c-0.93,1.85-1.14,3.25-1.33,4.48c-0.19,1.23-0.36,2.4-1.46,4.62
		c-0.93,1.87-2.85,5.76-5.79,7.75c-1.33,0.9-2.7,1.3-4.44,1.3c-1.84,0-3.89-0.46-6.07-0.94c-2.53-0.56-5.41-1.2-8.44-1.2
		c-3.02,0-5.77,0.62-8.41,1.88c-5.78,2.77-10.68,8.59-12.93,11.56c-0.57,0.06-1.11,0.09-1.62,0.09c-1.8,0-3.25-0.35-4.31-1.05
		c-2.17-1.42-2.59-4.24-3.14-9.11c-0.65-5.8-1.47-13.01-7.2-20.01c-1.95-2.38-3.67-3.77-6.07-5.69c-6.46-5.19-11.61-6.95-17.06-8.8
		c-2.7-0.92-5.5-1.87-8.69-3.32c-7.07-3.2-11.21-6.64-14.87-9.66c-4.78-3.96-9.3-7.71-18.11-8.77c-1.46-0.18-2.86-0.26-4.4-0.26
		c-1.76,0-3.6,0.11-5.94,0.24c-4.58,0.26-14.04,1.31-25.93,5.37c-8.3,2.83-18.64,6.36-28.89,14.87c-4.4,3.66-6.24,6.14-8.2,8.76
		c-1.68,2.26-3.42,4.6-7.26,8.24c-10.04,9.52-20.28,14.41-24.13,16.25c-16.98,8.11-32.28,9.37-40.49,10.05
		c-7.42,0.61-12.78,1.05-17.11,1.05c-4.23,0-7.14-0.43-9.73-1.42l-0.18-0.07c-1.51-0.59-3.27-1.22-4.95-1.22
		c-1.84,0-2.96,0.77-3.58,1.41c-3.42,3.55,1.09,10.15,5.48,15.06c0.82,0.92,8.73,9.02,38.92,18.27c-0.22,0.54-0.52,1.02-0.93,1.34
		c-0.45,0.35-0.9,0.43-2.14,0.64c-1.34,0.22-3.18,0.52-5.48,1.53c-2.81,1.24-5.09,2.85-6.77,4.78c-2.13,2.45-2.94,4.99-3.34,7.08
		c-1.7-1.82-4.09-3.93-7.53-4.35c-0.38-0.05-0.76-0.07-1.13-0.07c-3.26,0-5.46,1.74-7.58,3.42c-1.96,1.56-4.19,3.32-8.05,4.56
		c-1.18,0.38-3.93,1.26-6.4,1.26c-0.91,0-2.17-0.13-2.96-0.73c-1.35-1.03-1.39-3.67-1.42-5.09c-0.12-7.36,0.15-13.41,0.38-18.75
		c0.34-7.84,0.61-14.03-0.42-20.62c-1.21-7.76-2.26-14.46-8.26-19.06c-3.83-2.94-9.08-4.49-15.19-4.49c-7.88,0-16.66,2.58-23.5,6.91
		c-6.24,3.95-9.26,8.4-11.46,11.65c-2.26,3.33-3.16,4.43-5.2,4.7c-0.28,0.04-0.56,0.05-0.86,0.05c-3.81,0-8.73-2.86-12.52-7.29
		c-3.77-4.4-5.64-9.43-5.01-13.44c0.47-2.99,4.96-7.6,8.64-10.95c7.91-7.18,14.33-10.59,19.49-13.33
		c5.82-3.09,10.85-5.76,14.53-12.13c4.81-8.32,4.9-18.99,2.55-24.81c-1.34-3.31-3.23-4.47-4.59-4.86c-0.45-0.13-0.92-0.2-1.38-0.2
		c-2.42,0-3.99,1.59-5.8,3.43c-1.07,1.08-2.4,2.43-4.21,3.84c-5.28,4.09-9.65,4.81-13.88,5.51c-4.12,0.68-8.37,1.38-12.63,4.94
		c-5.99,5.02-7.27,11.66-8.3,17c-0.87,4.5-1.41,6.52-2.95,6.96c-0.27,0.08-0.56,0.12-0.87,0.12c-1.07,0-2.35-0.46-3.71-0.94
		c-1.69-0.6-3.6-1.28-5.7-1.28c-1.53,0-2.97,0.36-4.3,1.08c-3.49,1.89-4.45,5.2-5.22,7.85c-0.18,0.64-0.36,1.24-0.56,1.82
		c-3.2,9.21-14.16,16.23-18.42,16.23c-0.23,0-0.36-0.02-0.41-0.03c-1.18-1.19-1.3-8.81,1.67-16.4c1.55-3.96,5.04-8.41,12.01-17.28
		c1.08-1.37,2.02-2.54,2.89-3.61c2.51-3.11,4.49-5.57,7.05-9.65c1.77-2.83,4.2-6.7,5.85-10.95c2.74-7.05,1.98-11.5,1.31-15.43
		c-0.51-2.99-0.95-5.57,0.18-9.5c1.48-5.12,4.62-8.94,7.39-12.31c3.58-4.35,7.28-8.85,5.01-14.55c-0.51-1.27-1.19-2.27-1.75-3.06
		c-0.73-1.06-0.87-1.33-0.83-1.61c0.21-1.34,2.92-2.78,4.37-3.55c0.31-0.16,0.59-0.32,0.85-0.46c5.87-3.26,7.98-7.5,14.25-20.1
		l1.06-2.12c7.45-14.93,11.24-22.04,13.75-26.75c2.91-5.47,4.12-7.73,7.19-14.93c3.39-7.96,4.92-12.28,5.94-15.14
		c1.15-3.24,1.63-4.59,3.56-7.76c6.65-10.93,14.69-17.28,28.32-27.57c26.62-20.09,39.99-30.17,48.24-34.74
		c14.45-8.02,32.44-17.99,58.73-22.97c11.76-2.23,21.91-4.15,31.83-4.15c8.04,0,14.98,1.26,21.86,3.97
		c17.63,6.94,33.88,23.18,40.04,29.85c0.41,0.45,0.51,0.55,0.71,0.72l2,1.65l2.14-1.46c2.46-1.68,4.88-3.48,7.19-5.36
		c7.64-6.24,12.44-12.03,15.02-15.14c0.26-0.32,0.5-0.61,0.73-0.87c4.07-4.85,12.53-14.95,22.51-19.87
		C402.26,39.26,409.5,37.71,416.92,37.71 M416.92,34.26c-7.87,0-15.61,1.62-21.9,4.72c-10.63,5.24-19.56,15.89-23.63,20.75
		c-2.45,2.92-7.15,8.92-15.29,15.56c-2.81,2.29-5.26,4.04-6.95,5.19c-0.37-0.31-19.82-22.51-41.69-31.12
		c-7.78-3.06-15.36-4.21-23.12-4.21c-10.24,0-20.78,1.99-32.47,4.21c-26.84,5.08-45.39,15.37-59.76,23.34
		c-8.46,4.69-21.85,14.8-48.64,35.01c-14.24,10.74-22.34,17.28-29.18,28.52c-3.93,6.45-2.47,6.3-9.73,23.34
		c-5.65,13.27-4.87,9.46-20.85,41.49c-6.96,13.95-8.69,17.85-13.9,20.75c-2.14,1.19-6.41,3.07-6.95,6.48
		c-0.42,2.67,1.79,3.99,2.78,6.48c2.84,7.14-8.92,12.19-12.51,24.63c-2.93,10.16,3.05,13.22-1.39,24.63
		c-1.53,3.94-3.8,7.56-5.56,10.37c-3.31,5.28-5.53,7.63-9.73,12.97c-7.18,9.15-10.78,13.72-12.51,18.15
		c-2.9,7.41-4.21,18.69,0,20.75c0.54,0.26,1.2,0.39,1.95,0.39c6.06,0,18.08-8.2,21.68-18.54c1.08-3.12,1.34-6.24,4.17-7.78
		c0.89-0.48,1.77-0.67,2.66-0.67c3.06,0,6.14,2.22,9.41,2.22c0.6,0,1.21-0.08,1.83-0.25c7.68-2.22,2.71-16.42,12.51-24.64
		c7.6-6.37,15.26-1.73,26.41-10.37c4.55-3.53,6.16-6.55,7.91-6.54c0.14,0,0.29,0.02,0.43,0.06c3.61,1.04,5.87,14.47,0,24.63
		c-6.16,10.65-16.3,9.15-33.35,24.63c-8.61,7.82-9.47,11.33-9.73,12.97c-1.75,11.22,11.05,24.72,20.94,24.72
		c0.44,0,0.87-0.03,1.3-0.08c7.43-0.95,6.68-9.65,18.07-16.86c6.14-3.88,14.28-6.37,21.66-6.37c5,0,9.66,1.15,13.09,3.78
		c4.9,3.76,5.78,9.37,6.95,16.86c1.67,10.67-0.28,20.89,0,38.9c0.03,2.14,0.14,5.78,2.78,7.78c1.41,1.07,3.22,1.43,5.05,1.43
		c3.02,0,6.08-0.99,7.46-1.43c8.55-2.75,10.28-7.82,14.58-7.82c0.23,0,0.47,0.01,0.71,0.04c4.87,0.59,7.04,6.55,9.31,6.55
		c0.14,0,0.28-0.02,0.41-0.07c2.15-0.72,0.24-5.85,4.17-10.37c1.99-2.29,4.66-3.49,5.56-3.89c4-1.76,6.12-0.88,8.34-2.59
		c1.21-0.93,2.55-2.71,2.78-6.48c-32.68-9.61-40.3-18.15-40.3-18.15c-2.81-3.15-6.95-8.92-5.56-10.37c0.24-0.25,0.63-0.35,1.09-0.35
		c1.27,0,3.09,0.75,3.89,1.06c3.12,1.2,6.52,1.66,10.97,1.66c4.47,0,10.01-0.46,17.4-1.06c8.5-0.7,24.14-1.99,41.69-10.37
		c4.44-2.12,14.79-7.16,25.02-16.86c8.48-8.04,7.47-10.36,15.29-16.86c9.76-8.11,19.8-11.53,27.8-14.26
		c12.86-4.39,22.58-5.05,25.02-5.19c2.31-0.13,4.09-0.23,5.75-0.23c1.33,0,2.59,0.07,3.98,0.23c14.02,1.69,15.09,10.51,31.96,18.15
		c9.86,4.47,15.95,4.38,25.02,11.67c2.31,1.86,3.84,3.09,5.56,5.19c9.75,11.91,3.51,24.85,11.12,29.82c1.2,0.78,3.11,1.61,6.2,1.61
		c1.04,0,2.21-0.09,3.53-0.31c0.03-0.03,5.75-8.43,12.51-11.67c2.38-1.14,4.69-1.54,6.92-1.54c5.16,0,9.94,2.14,14.51,2.14
		c2.16,0,4.28-0.48,6.37-1.89c3.69-2.5,5.91-6.98,6.95-9.08c2.41-4.87,1.24-6.02,2.78-9.08c4.68-9.29,19.5-6.56,23.63-15.56
		c0.96-2.09,1.92-6.09,0-7.78c-0.54-0.48-1.23-0.7-2.09-0.7c-5.28,0-16.78,8.35-38.21,14.96c-6.33,1.95-12.57,3.46-19.22,3.46
		c-2.78,0-5.62-0.26-8.58-0.87c-2.29-0.47-4.88-1.19-8.34-2.59c-10.74-4.36-17.52-10.3-33.35-24.64
		c-18.55-16.8-23.73-21.76-26.41-31.12c-0.4-1.39-0.73-3.54-1.39-7.78c-4.33-27.99-6.38-42.12-0.69-48.62
		c4.65-5.32,8.52-2.29,19.46-7.78c16.82-8.45,24.35-24,27.8-31.12c6.4-13.21,3.35-16.86,9.73-49.27c1.62-8.24,2.3-10.45,1.39-14.26
		c-0.91-3.83-3.13-8-1.39-12.97c0.51-1.44,0.76-2.16,1.39-2.59c0.42-0.29,0.93-0.42,1.52-0.42c5.6,0,18.71,12.02,33.22,22.46
		c14.31,10.29,37.48,24.43,47.69,24.43c1.59,0,2.86-0.34,3.74-1.09c2.23-1.91-0.48-4.44,0-16.86c0.48-12.44,3.37-14.28,1.39-20.75
		c-2.46-8.06-8.66-10.85-6.95-14.26c0.96-1.92,3.9-2.97,6.82-2.97c1,0,2,0.12,2.91,0.38c3.98,1.12,5.87,4.59,8.34,9.08
		c12.96,23.56,14.7,25.5,16.68,27.23c5.6,4.9,8.75,4.35,11.12,9.08c3.25,6.5-0.33,12.28,2.78,14.26c0.47,0.3,0.97,0.43,1.52,0.43
		c2.49,0,5.94-2.71,12.38-4.32c2.1-0.52,3.59-0.7,5.26-0.7c3.18,0,7.02,0.63,16.98,0.7c0.55,0,1.07,0.01,1.59,0.01
		c15.66,0,18.4-1.7,19.95-3.25c2.66-2.66,4.67-7.76,2.78-11.67c-4.21-8.69-25.83-1.56-36.13-12.97c-4.31-4.77-1.03-6.57-6.95-18.15
		c-2.74-5.35-6.82-13.13-15.29-19.45c-8.82-6.58-18.03-8.33-22.24-9.08c-1.21-0.22-2.95-0.49-6.34-0.49
		c-5.19,0-14.24,0.64-31.19,3.08c-13.84,2-17.99,3.04-20.71,3.04c-1.02,0-1.85-0.15-2.91-0.45c-13.77-3.88-11.69-17.58-26.41-27.23
		C436.09,36.61,426.41,34.26,416.92,34.26L416.92,34.26z"/>
</g>
<text transform="matrix(0.9112 0 0 1 436.043 282.2568)" class="st1 st2 st3">Galloping </text>
<text transform="matrix(0.8546 -8.270640e-03 7.473433e-03 1 613.5999 114.5302)" class="st1 st2 st4">The</text>
<text transform="matrix(0.9393 0 0 1 527.6953 431.4727)" class="st1 st2 st5">Goose </text>
</svg>
