<svg xmlns="http://www.w3.org/2000/svg" viewBox="0 0 1505 587.03"><title>tree-photography</title><path d="M393.32,200.71a151.5,151.5,0,1,0-286.64,0A108.53,108.53,0,0,0,162,410.07L105.79,353.9a7.5,7.5,0,0,1,10.61-10.61l62.2,62.2A108.83,108.83,0,0,0,235,358.56V201a15,15,0,0,1,30,0V358.56a108.68,108.68,0,0,0,19.79,24.55l97.81-97.82a7.5,7.5,0,0,1,10.61,10.61l-96.67,96.67a108.51,108.51,0,1,0,96.78-191.86Z" transform="translate(-33)" style="fill:#fff"/><path d="M265,402.89V358.56a107.94,107.94,0,0,1-15-55.06,107.94,107.94,0,0,1-15,55.06V461.89l-56.4-56.4A108.67,108.67,0,0,1,162,410.07l73,73V571a15,15,0,0,0,30,0V424.11l31.54-31.54a109.26,109.26,0,0,1-11.75-9.46Z" transform="translate(-33)" style="fill:#fff"/><path d="M636.55,501.72q-10.18,8.5-29.09,8.5H583.3v41.71H559.22v-116H609q17.22,0,27.47,9t10.24,27.78Q646.74,493.22,636.55,501.72Zm-18.5-41.79q-4.6-3.85-12.9-3.86H583.3v34.16h21.85q8.29,0,12.9-4.17t4.6-13.22Q622.65,463.78,618.05,459.93Z" transform="translate(-33)" style="fill:#fff"/><path d="M726,466.62a25.21,25.21,0,0,1,10.62,8.43,22.47,22.47,0,0,1,4.31,9.89,122.37,122.37,0,0,1,.79,16.58v50.41H718.82V499.69q0-6.93-2.34-11.19-3-6-11.56-6-8.83,0-13.4,6t-4.57,17v46.49H664.52V436.32H687v40.92q4.86-7.47,11.24-10.42a31.65,31.65,0,0,1,13.44-3A36.26,36.26,0,0,1,726,466.62Z" transform="translate(-33)" style="fill:#fff"/><path d="M834.35,541.43q-10.86,13.41-33,13.41t-33-13.41Q757.54,528,757.54,509.16q0-18.56,10.86-32.16t33-13.61q22.11,0,33,13.61t10.86,32.16Q845.21,528,834.35,541.43ZM816.41,529q5.28-7,5.27-19.88t-5.27-19.85q-5.26-6.94-15.11-6.95t-15.15,6.95q-5.31,7-5.31,19.85T786.15,529q5.31,7,15.15,7T816.41,529Z" transform="translate(-33)" style="fill:#fff"/><path d="M852.46,482.91v-16h12V443h22.19v23.92h13.93v16H886.61v45.33c0,3.52.44,5.71,1.34,6.57s3.62,1.3,8.18,1.3c.68,0,1.41,0,2.17,0s1.5-.06,2.24-.12v16.77l-10.63.39q-15.88.55-21.72-5.51-3.77-3.86-3.77-11.88V482.91Z" transform="translate(-33)" style="fill:#fff"/><path d="M986.48,541.43q-10.86,13.41-33,13.41t-33-13.41Q909.67,528,909.67,509.16q0-18.56,10.86-32.16t33-13.61q22.13,0,33,13.61t10.86,32.16Q997.34,528,986.48,541.43ZM968.54,529q5.26-7,5.27-19.88t-5.27-19.85q-5.28-6.94-15.11-6.95t-15.15,6.95q-5.32,7-5.32,19.85T938.28,529q5.31,7,15.15,7T968.54,529Z" transform="translate(-33)" style="fill:#fff"/><path d="M1055.83,466.07q8.18,3.38,13.2,12.43V466.15h21.88v81.37q0,16.61-5.59,25-9.6,14.48-36.83,14.48-16.44,0-26.83-6.45t-11.49-19.29h24.39a10.12,10.12,0,0,0,3.07,5.67q3.61,3.07,12.2,3.07,12.12,0,16.21-8.11,2.68-5.19,2.68-17.47v-5.51a27.27,27.27,0,0,1-6.93,8.27q-6.69,5.12-17.39,5.11-16.53,0-26.4-11.61t-9.88-31.44q0-19.11,9.51-32.14t27-13A29.51,29.51,0,0,1,1055.83,466.07Zm7.64,61.5q5.4-5.94,5.4-18.93,0-12.19-5.13-18.57A16.75,16.75,0,0,0,1050,483.7q-11.76,0-16.22,11.09a39.48,39.48,0,0,0-2.35,14.56,33.35,33.35,0,0,0,2.5,13.3q4.55,10.86,16.3,10.86A17.24,17.24,0,0,0,1063.47,527.57Z" transform="translate(-33)" style="fill:#fff"/><path d="M1159.5,464.14c.29,0,.93.07,1.93.12v23c-1.42-.16-2.68-.26-3.78-.32s-2-.07-2.68-.07q-13.53,0-18.18,8.81-2.6,4.95-2.59,15.27v41h-22.59V466.15H1133v15q5.21-8.58,9.06-11.73,6.29-5.26,16.36-5.27C1158.85,464.1,1159.21,464.12,1159.5,464.14Z" transform="translate(-33)" style="fill:#fff"/><path d="M1208.54,499.75a35.12,35.12,0,0,0,9-2q4.85-2,4.84-6.37,0-5.27-3.71-7.28t-10.89-2q-8.06,0-11.41,3.94a16.25,16.25,0,0,0-3.19,7.87H1171.5q.7-11.26,6.32-18.5,8.94-11.32,30.67-11.33a54.66,54.66,0,0,1,25.14,5.59q11,5.58,11,21.09v39.35c0,2.73.05,6,.16,9.92.16,2.93.6,4.93,1.34,6a8,8,0,0,0,3.3,2.59v3.31H1225a24.93,24.93,0,0,1-1.41-4.88q-.39-2.28-.63-5.19a46.47,46.47,0,0,1-10.77,8.57,32.51,32.51,0,0,1-16.46,4.17q-11.71,0-19.36-6.65t-7.64-18.84q0-15.83,12.29-22.9,6.75-3.87,19.82-5.51Zm13.72,10.47a25.14,25.14,0,0,1-4.35,2.16,37.55,37.55,0,0,1-6,1.54l-5.11.94q-7.17,1.26-10.31,3.07a10.25,10.25,0,0,0-5.3,9.52q0,5.74,3.24,8.31a12.33,12.33,0,0,0,7.87,2.55,23.41,23.41,0,0,0,13.55-4.25q6.2-4.24,6.43-15.5Z" transform="translate(-33)" style="fill:#fff"/><path d="M1336.34,475.35q10.5,11.1,10.5,32.59,0,22.66-10.26,34.54t-26.41,11.89q-10.31,0-17.11-5.12a33,33,0,0,1-7.29-8.26v44.7h-22.19V466.15h21.48v12.67a36.33,36.33,0,0,1,7.76-8.82,28.66,28.66,0,0,1,17.9-5.74A33.92,33.92,0,0,1,1336.34,475.35Zm-17.21,16.14q-4.58-7.64-14.83-7.64-12.32,0-16.93,11.57Q1285,501.57,1285,511q0,14.94,8,21a18.41,18.41,0,0,0,11.29,3.54q9.46,0,14.43-7.24t5-19.28A33.47,33.47,0,0,0,1319.13,491.49Z" transform="translate(-33)" style="fill:#fff"/><path d="M1424.31,466.62a25.21,25.21,0,0,1,10.62,8.43,22.45,22.45,0,0,1,4.3,9.89,120.7,120.7,0,0,1,.79,16.58v50.41h-22.9V499.69q0-6.93-2.35-11.19-3-6-11.56-6-8.82,0-13.4,6t-4.56,17v46.49h-22.43V436.32h22.43v40.92q4.85-7.47,11.24-10.42a31.65,31.65,0,0,1,13.44-3A36.26,36.26,0,0,1,1424.31,466.62Z" transform="translate(-33)" style="fill:#fff"/><path d="M1464.5,568.38l2.83.15a35,35,0,0,0,6.29-.23,11.42,11.42,0,0,0,5-1.81c1.31-.89,2.53-2.76,3.66-5.59s1.61-4.56,1.46-5.19l-31.52-89.56h24.94l18.74,63.27,17.7-63.27h23.85l-29.41,84.36q-8.52,24.4-13.49,30.26t-19.85,5.86c-2,0-3.6,0-4.81,0s-3-.12-5.43-.28Z" transform="translate(-33)" style="fill:#fff"/><path d="M756,34.34v68.58H640.15V421.63H558.69V102.92H442.3V34.34Z" transform="translate(-33)" style="fill:#fff"/><path d="M926.93,128.53c1,.09,3.11.23,6.44.4v76.72q-7.1-.79-12.61-1.05t-8.93-.26q-45.21,0-60.7,29.42-8.67,16.56-8.67,51V421.63H767.05V135.23h71.47v49.92q17.34-28.62,30.21-39.14,21-17.61,54.66-17.61C924.79,128.4,926,128.45,926.93,128.53Z" transform="translate(-33)" style="fill:#fff"/><path d="M1163.87,141q30,13.42,49.49,42.37,17.6,25.53,22.82,59.21,3,19.74,2.47,56.84H1030.06q1.74,43.1,30,60.43,17.16,10.78,41.29,10.77,25.59,0,41.58-13.13,8.71-7.09,15.41-19.71h76.45q-3,25.49-27.76,51.76-38.49,41.78-107.75,41.78-57.17,0-100.88-35.24t-43.7-114.66q0-74.41,39.46-114.12t102.41-39.72Q1133.9,127.61,1163.87,141Zm-112,64.69q-15.88,16.36-19.95,44.33h129q-2-29.81-20-45.25t-44.41-15.44Q1067.72,189.36,1051.85,205.72Z" transform="translate(-33)" style="fill:#fff"/><path d="M1463.14,141q30,13.42,49.49,42.37,17.59,25.53,22.82,59.21,3,19.74,2.46,56.84H1329.33q1.74,43.1,30,60.43,17.15,10.78,41.28,10.77,25.59,0,41.58-13.13,8.73-7.09,15.42-19.71H1534q-3,25.49-27.77,51.76-38.48,41.78-107.74,41.78-57.18,0-100.88-35.24t-43.7-114.66q0-74.41,39.45-114.12t102.41-39.72Q1433.18,127.61,1463.14,141Zm-112,64.69q-15.87,16.36-19.94,44.33h129q-2-29.81-19.94-45.25t-44.42-15.44Q1367,189.36,1351.11,205.72Z" transform="translate(-33)" style="fill:#fff"/></svg>