<?xml version="1.0" standalone="no"?>
<!DOCTYPE svg PUBLIC "-//W3C//DTD SVG 20010904//EN"
 "http://www.w3.org/TR/2001/REC-SVG-20010904/DTD/svg10.dtd">
<svg version="1.0" xmlns="http://www.w3.org/2000/svg"
 width="1142.000000pt" height="1142.000000pt" viewBox="0 0 1142.000000 1142.000000"
 preserveAspectRatio="xMidYMid meet">
<metadata>
Created by potrace 1.14, written by Peter Selinger 2001-2017
</metadata>
<g transform="translate(0.000000,1142.000000) scale(0.100000,-0.100000)"
fill="#000000" stroke="none">
<path d="M3819 9606 c-2 -2 -58 -6 -124 -10 -66 -3 -131 -8 -145 -10 -14 -3
-56 -7 -95 -11 -38 -3 -110 -13 -160 -20 -49 -8 -108 -17 -130 -21 -80 -12
-325 -65 -410 -89 -286 -80 -613 -213 -800 -325 -27 -17 -57 -33 -65 -37 -34
-15 -162 -101 -269 -180 -168 -125 -371 -314 -484 -450 -19 -23 -41 -49 -48
-57 -41 -45 -148 -197 -212 -301 -137 -224 -274 -547 -332 -787 -9 -35 -18
-70 -20 -78 -9 -37 -34 -159 -39 -195 -4 -23 -8 -50 -10 -61 -2 -12 -7 -45
-11 -74 -4 -29 -8 -60 -10 -69 -3 -15 -14 -136 -21 -231 -5 -65 -5 -539 0
-575 2 -16 7 -75 11 -130 4 -55 9 -102 10 -105 2 -3 6 -34 10 -70 3 -36 8 -72
10 -80 2 -8 7 -31 10 -50 7 -45 24 -133 44 -225 55 -253 182 -573 330 -832 30
-52 140 -220 166 -251 7 -10 42 -53 77 -97 72 -91 242 -266 338 -347 194 -163
410 -302 643 -413 107 -51 275 -122 307 -130 8 -2 56 -18 105 -36 50 -17 104
-35 120 -39 17 -4 73 -19 125 -33 165 -45 426 -97 560 -113 25 -3 56 -7 70 -9
14 -2 52 -7 85 -10 33 -3 76 -8 95 -10 211 -27 845 -27 1049 0 19 2 62 7 95
10 34 3 68 7 76 10 16 4 50 9 135 21 28 3 52 8 55 9 3 2 26 6 50 10 25 3 61
10 80 15 19 5 55 12 80 15 24 4 48 9 53 12 4 3 23 7 40 10 186 29 1054 298
1252 387 17 8 58 24 93 36 34 13 66 28 70 34 3 6 7 419 7 918 1 499 3 910 6
912 2 2 56 47 119 100 63 54 138 117 165 141 28 23 115 98 195 165 80 68 154
131 165 141 20 18 21 17 66 -24 93 -84 212 -192 233 -210 21 -19 150 -135 241
-218 42 -38 87 -78 149 -134 67 -60 203 -182 212 -190 6 -5 48 -44 94 -85 46
-41 93 -84 104 -95 12 -11 59 -54 106 -95 47 -41 94 -84 106 -95 11 -11 53
-49 94 -85 40 -36 78 -70 84 -75 19 -18 239 -217 291 -264 46 -40 206 -185
245 -221 9 -8 76 -69 150 -135 74 -66 144 -129 156 -140 22 -21 156 -142 214
-193 19 -16 57 -51 84 -76 l49 -46 586 0 c497 1 583 3 568 14 -10 8 -39 34
-66 57 -26 24 -85 78 -131 119 -46 41 -93 84 -104 95 -12 11 -91 83 -176 160
-85 77 -177 161 -205 187 -27 25 -61 56 -75 68 -33 29 -307 278 -346 315 -15
14 -173 157 -194 175 -26 22 -314 285 -346 315 -6 5 -51 46 -100 90 -48 44
-95 87 -104 95 -9 8 -38 35 -66 59 -27 25 -76 70 -110 100 -33 31 -102 94
-154 141 -52 47 -175 159 -275 249 -99 90 -218 198 -264 240 -46 42 -89 81
-95 86 -6 6 -56 51 -110 100 -55 50 -124 113 -154 141 l-54 50 83 69 c114 94
118 97 142 118 53 45 122 103 252 211 77 65 149 125 160 134 11 10 88 73 170
142 83 69 152 127 155 131 3 3 61 52 130 109 69 57 127 106 130 109 3 3 30 26
60 51 80 65 82 67 236 196 77 66 163 137 189 159 27 22 62 52 79 67 17 14 148
124 291 244 143 119 280 234 305 255 25 21 151 126 280 234 129 108 246 207
260 218 14 12 40 34 58 50 l34 27 -548 0 -547 0 -86 -72 c-47 -40 -88 -75 -91
-78 -3 -3 -66 -57 -140 -120 -74 -63 -137 -117 -140 -120 -3 -3 -48 -42 -100
-86 -52 -44 -396 -338 -765 -653 -368 -316 -694 -594 -724 -620 -30 -25 -59
-50 -65 -56 -6 -5 -38 -32 -71 -60 -33 -27 -65 -54 -71 -60 -15 -14 -101 -88
-204 -175 -47 -40 -141 -121 -210 -180 -415 -357 -595 -509 -598 -506 -2 2 -3
485 -2 1073 3 1563 2 1695 -5 1729 -5 20 -16 34 -33 41 -470 189 -637 249
-896 324 -122 36 -379 100 -456 114 -35 7 -70 14 -100 20 -14 3 -38 7 -55 10
-16 2 -86 13 -155 24 -162 26 -218 33 -370 46 -41 4 -91 9 -110 12 -40 5 -685
14 -691 9z m496 -730 c90 -7 192 -17 215 -21 8 -1 44 -6 80 -10 36 -4 74 -9
85 -11 11 -3 56 -11 100 -19 95 -17 121 -22 143 -29 9 -3 29 -7 43 -10 188
-32 780 -237 806 -279 8 -13 5 -2148 -2 -2156 -3 -3 -434 -5 -958 -5 l-952 -1
-2 -365 c-1 -200 2 -367 6 -370 5 -3 428 -5 940 -5 l931 0 1 -27 c1 -38 0
-412 -1 -1025 l0 -508 -138 -43 c-311 -99 -675 -176 -977 -207 -33 -3 -76 -8
-95 -10 -146 -19 -615 -26 -785 -11 -136 11 -178 16 -205 21 -14 2 -45 7 -70
10 -56 8 -274 53 -315 65 -308 94 -477 166 -674 287 -259 160 -488 378 -674
641 -20 28 -37 55 -37 58 0 3 -8 18 -19 32 -57 81 -178 350 -224 497 -26 85
-66 238 -72 280 -4 22 -8 47 -10 55 -3 8 -7 33 -10 55 -3 22 -7 49 -10 60 -2
11 -7 47 -10 80 -4 33 -9 76 -12 95 -3 19 -6 157 -8 305 -3 247 6 410 30 550
3 22 9 56 11 75 3 19 11 63 19 96 8 34 16 73 19 85 23 109 84 291 140 418 169
384 448 716 796 948 252 168 578 297 885 352 33 6 71 13 84 16 13 2 49 7 80
11 31 3 63 8 72 9 8 2 55 6 105 10 49 4 90 8 92 9 5 5 500 -2 577 -8z"/>
</g>
</svg>
